<svg width="26" height="5" viewBox="0 0 26 5" fill="none" xmlns="http://www.w3.org/2000/svg">
<path d="M24.8793 2.94092C25.1554 2.94092 25.3793 2.71706 25.3793 2.44092C25.3793 2.16478 25.1554 1.94092 24.8793 1.94092V2.94092ZM0 2.94092H24.8793V1.94092H0V2.94092Z" fill="#8187BD"/>
<path d="M25.3582 2.79023C25.5559 2.59743 25.5559 2.28484 25.3582 2.09204C25.1605 1.89923 24.84 1.89923 24.6423 2.09204L25.3582 2.79023ZM23.2471 4.8491L25.3582 2.79023L24.6423 2.09204L22.5312 4.1509L23.2471 4.8491Z" fill="#8187BD"/>
<path d="M25.3582 2.20977C25.5559 2.40257 25.5559 2.71516 25.3582 2.90796C25.1605 3.10077 24.84 3.10077 24.6423 2.90796L25.3582 2.20977ZM23.2471 0.150901L25.3582 2.20977L24.6423 2.90796L22.5312 0.849099L23.2471 0.150901Z" fill="#8187BD"/>
</svg>
