<svg width="38" height="25" viewBox="0 0 38 25" fill="none" xmlns="http://www.w3.org/2000/svg">
<circle cx="25.5" cy="12.5" r="12.5" fill="#FECC00"/>
<path d="M25 13.5C25.2761 13.5 25.5 13.2761 25.5 13C25.5 12.7239 25.2761 12.5 25 12.5V13.5ZM0 13.5H25V12.5H0V13.5Z" fill="#02111B"/>
<path d="M25.4749 13.3536C25.6701 13.1583 25.6701 12.8417 25.4749 12.6465C25.2796 12.4512 24.963 12.4512 24.7678 12.6465L25.4749 13.3536ZM23.3536 15.4749L25.4749 13.3536L24.7678 12.6465L22.6464 14.7678L23.3536 15.4749Z" fill="#02111B"/>
<path d="M25.4749 12.7678C25.6701 12.963 25.6701 13.2796 25.4749 13.4749C25.2796 13.6701 24.963 13.6701 24.7678 13.4749L25.4749 12.7678ZM23.3536 10.6464L25.4749 12.7678L24.7678 13.4749L22.6464 11.3536L23.3536 10.6464Z" fill="#02111B"/>
</svg>
