<svg width="6" height="13" viewBox="0 0 6 13" fill="none" xmlns="http://www.w3.org/2000/svg">
<path d="M2.5 12C2.5 12.2761 2.72386 12.5 3 12.5C3.27614 12.5 3.5 12.2761 3.5 12L2.5 12ZM2.5 -2.18557e-08L2.5 12L3.5 12L3.5 2.18557e-08L2.5 -2.18557e-08Z" fill="#8187BD"/>
<path d="M2.80707 12.3431C3.00791 12.5326 3.33352 12.5326 3.53435 12.3431C3.73518 12.1536 3.73519 11.8463 3.53435 11.6568L2.80707 12.3431ZM0.63636 10.2946L2.80707 12.3431L3.53435 11.6568L1.36364 9.60825L0.63636 10.2946Z" fill="#8187BD"/>
<path d="M3.19292 12.3431C2.99209 12.5326 2.66648 12.5326 2.46565 12.3431C2.26481 12.1536 2.26481 11.8463 2.46565 11.6568L3.19292 12.3431ZM5.36364 10.2946L3.19292 12.3431L2.46565 11.6568L4.63636 9.60825L5.36364 10.2946Z" fill="#8187BD"/>
</svg>
