<svg width="10" height="6" viewBox="0 0 10 6" fill="none" xmlns="http://www.w3.org/2000/svg">
<path d="M9.54922 1.43711L5.34922 5.64961C5.29922 5.69961 5.24505 5.73494 5.18672 5.75561C5.12839 5.77661 5.06589 5.78711 4.99922 5.78711C4.93255 5.78711 4.87005 5.77661 4.81172 5.75561C4.75339 5.73494 4.69922 5.69961 4.64922 5.64961L0.436719 1.43711C0.320052 1.32044 0.261719 1.17461 0.261719 0.999609C0.261719 0.824609 0.324219 0.67461 0.449219 0.54961C0.574219 0.42461 0.720052 0.36211 0.886719 0.36211C1.05339 0.36211 1.19922 0.42461 1.32422 0.54961L4.99922 4.22461L8.67422 0.549609C8.79089 0.432942 8.93455 0.374609 9.10522 0.374609C9.27622 0.374609 9.42422 0.437109 9.54922 0.562109C9.67422 0.687109 9.73672 0.832943 9.73672 0.999609C9.73672 1.16628 9.67422 1.31211 9.54922 1.43711Z" fill="#02111B"/>
</svg>
