<svg width="19" height="23" viewBox="0 0 19 23" fill="none" xmlns="http://www.w3.org/2000/svg">
<rect x="1" y="3" width="17" height="17" stroke="#FECC00" stroke-width="2"/>
<path d="M8.46 13.61V11.27C9.26 11.24 9.865 11.09 10.275 10.82C10.695 10.54 10.905 10.11 10.905 9.53V9.32C10.905 8.9 10.78 8.575 10.53 8.345C10.28 8.115 9.945 8 9.525 8C9.075 8 8.71 8.135 8.43 8.405C8.16 8.665 7.97 9.005 7.86 9.425L6.255 8.765C6.345 8.455 6.475 8.155 6.645 7.865C6.815 7.575 7.035 7.32 7.305 7.1C7.575 6.87 7.9 6.69 8.28 6.56C8.66 6.42 9.1 6.35 9.6 6.35C10.11 6.35 10.57 6.425 10.98 6.575C11.39 6.715 11.74 6.92 12.03 7.19C12.32 7.45 12.545 7.765 12.705 8.135C12.865 8.505 12.945 8.915 12.945 9.365C12.945 9.805 12.87 10.2 12.72 10.55C12.58 10.89 12.385 11.19 12.135 11.45C11.885 11.7 11.6 11.905 11.28 12.065C10.96 12.215 10.63 12.32 10.29 12.38V13.61H8.46ZM9.39 17.18C8.97 17.18 8.665 17.08 8.475 16.88C8.285 16.68 8.19 16.425 8.19 16.115V15.815C8.19 15.505 8.285 15.25 8.475 15.05C8.665 14.85 8.97 14.75 9.39 14.75C9.82 14.75 10.13 14.85 10.32 15.05C10.51 15.25 10.605 15.505 10.605 15.815V16.115C10.605 16.425 10.51 16.68 10.32 16.88C10.13 17.08 9.82 17.18 9.39 17.18Z" fill="#FECC00"/>
</svg>
