<svg width="25" height="25" viewBox="0 0 25 25" fill="none" xmlns="http://www.w3.org/2000/svg">
<path d="M9.34507 13.1159L11.7143 15.4851L17.2089 9.87764C17.2654 9.8211 17.3325 9.77626 17.4064 9.74566C17.4803 9.71507 17.5594 9.69932 17.6394 9.69932C17.7193 9.69932 17.7985 9.71507 17.8724 9.74566C17.9462 9.77626 18.0133 9.8211 18.0699 9.87764C18.1264 9.93417 18.1712 10.0013 18.2018 10.0751C18.2324 10.149 18.2482 10.2282 18.2482 10.3081C18.2482 10.3881 18.2324 10.4672 18.2018 10.5411C18.1712 10.615 18.1264 10.6821 18.0699 10.7386L12.1418 16.7796C11.9036 17.0178 11.5189 17.0178 11.2808 16.7796L8.47797 13.9768C8.42137 13.9204 8.37646 13.8532 8.34581 13.7794C8.31517 13.7055 8.2994 13.6263 8.2994 13.5463C8.2994 13.4664 8.31517 13.3872 8.34581 13.3133C8.37646 13.2394 8.42137 13.1723 8.47797 13.1159C8.71612 12.8838 9.10693 12.8777 9.34507 13.1159Z" fill="#02111B"/>
<circle cx="12.5" cy="12.5" r="12.069" stroke="#02111B" stroke-width="0.862069"/>
</svg>
