<svg width="44" height="44" viewBox="0 0 44 44" fill="none" xmlns="http://www.w3.org/2000/svg">
<path d="M13.2104 16.2617L22.1472 22.5174L31.0839 16.2617" stroke="black" stroke-width="1.42988" stroke-linecap="round" stroke-linejoin="round"/>
<path d="M4.27441 30.559V12.6855C4.27441 11.7375 4.65103 10.8282 5.32142 10.1578C5.9918 9.48746 6.90104 9.11084 7.8491 9.11084H36.4466C37.3947 9.11084 38.3039 9.48746 38.9743 10.1578C39.6447 10.8282 40.0213 11.7375 40.0213 12.6855V30.559C40.0213 31.507 39.6447 32.4163 38.9743 33.0867C38.3039 33.7571 37.3947 34.1337 36.4466 34.1337H7.8491C6.90104 34.1337 5.9918 33.7571 5.32142 33.0867C4.65103 32.4163 4.27441 31.507 4.27441 30.559Z" stroke="black" stroke-width="1.42988"/>
</svg>
