<svg width="16" height="25" viewBox="0 0 16 25" fill="none" xmlns="http://www.w3.org/2000/svg">
<path d="M3.03955 0.0214844C1.86616 0.0214844 0.90625 0.981399 0.90625 2.15478V21.8879C0.90625 23.0613 1.86616 24.0212 3.03955 24.0212H12.9593C14.1326 24.0212 15.0926 23.0613 15.0926 21.8879V2.15478C15.0926 0.981399 14.1326 0.0214844 12.9593 0.0214844L3.03955 0.0214844ZM6.81046 2.0761H9.18904C9.3454 2.0761 9.47213 2.2554 9.47213 2.47621C9.47213 2.69702 9.3454 2.87632 9.18904 2.87632H6.81046C6.6541 2.87632 6.52737 2.69702 6.52737 2.47621C6.52737 2.2554 6.6541 2.0761 6.81046 2.0761ZM2.07775 4.92828H13.9209V19.1149H2.07775V4.92828ZM7.99932 20.2476C8.72875 20.2476 9.32001 20.8389 9.32001 21.5683C9.32001 22.2977 8.72871 22.8889 7.99932 22.8889C7.26994 22.8889 6.67864 22.2976 6.67864 21.5683C6.67864 20.8388 7.26994 20.2476 7.99932 20.2476Z" fill="#FECC00"/>
</svg>
