<svg width="30" height="30" viewBox="0 0 30 30" fill="none" xmlns="http://www.w3.org/2000/svg">
<path d="M10.0396 3.02148C8.86616 3.02148 7.90625 3.9814 7.90625 5.15478V24.8879C7.90625 26.0613 8.86616 27.0212 10.0396 27.0212H19.9593C21.1326 27.0212 22.0926 26.0613 22.0926 24.8879V5.15478C22.0926 3.9814 21.1326 3.02148 19.9593 3.02148L10.0396 3.02148ZM13.8105 5.0761H16.189C16.3454 5.0761 16.4721 5.2554 16.4721 5.47621C16.4721 5.69702 16.3454 5.87632 16.189 5.87632H13.8105C13.6541 5.87632 13.5274 5.69702 13.5274 5.47621C13.5274 5.2554 13.6541 5.0761 13.8105 5.0761ZM9.07775 7.92828H20.9209V22.1149H9.07775V7.92828ZM14.9993 23.2476C15.7287 23.2476 16.32 23.8389 16.32 24.5683C16.32 25.2977 15.7287 25.8889 14.9993 25.8889C14.2699 25.8889 13.6786 25.2976 13.6786 24.5683C13.6786 23.8388 14.2699 23.2476 14.9993 23.2476Z" fill="#FECC00"/>
</svg>
