<svg width="30" height="30" viewBox="0 0 30 30" fill="none" xmlns="http://www.w3.org/2000/svg">
<path fill-rule="evenodd" clip-rule="evenodd" d="M20.6946 17.7947C21.9205 18.4759 23.1471 19.1573 24.3729 19.8385C24.9006 20.1315 25.132 20.7532 24.9243 21.3201C23.8696 24.2015 20.7806 25.7224 17.8741 24.6616C11.9225 22.4893 7.51094 18.0775 5.33837 12.1259C4.27752 9.21943 5.79849 6.13038 8.67986 5.0757C9.24684 4.86797 9.86851 5.09942 10.1622 5.62708C10.8427 6.85297 11.5241 8.07958 12.2054 9.3054C12.5247 9.88049 12.4496 10.5631 12.0126 11.0542C11.4401 11.6983 10.8678 12.3423 10.2954 12.9858C11.5173 15.9612 14.0388 18.4827 17.0142 19.7045C17.6576 19.1321 18.3016 18.5598 18.9458 17.9874C19.4376 17.5503 20.1196 17.4752 20.6946 17.7946L20.6946 17.7947Z" fill="#FECC00"/>
</svg>
