<svg width="20" height="20" viewBox="0 0 20 20" fill="none" xmlns="http://www.w3.org/2000/svg">
<path fill-rule="evenodd" clip-rule="evenodd" d="M15.6946 12.7947C16.9205 13.4759 18.1471 14.1573 19.3729 14.8385C19.9006 15.1315 20.132 15.7532 19.9243 16.3201C18.8696 19.2015 15.7806 20.7224 12.8741 19.6616C6.92249 17.4893 2.51094 13.0775 0.338371 7.12591C-0.722482 4.21943 0.798492 1.13038 3.67986 0.0757035C4.24684 -0.132031 4.86851 0.0994207 5.16219 0.627077C5.84275 1.85297 6.52413 3.07958 7.20536 4.3054C7.52471 4.88049 7.44965 5.56312 7.01256 6.0542C6.44015 6.69833 5.86784 7.34231 5.29543 7.98576C6.51729 10.9612 9.03876 13.4827 12.0142 14.7045C12.6576 14.1321 13.3016 13.5598 13.9458 12.9874C14.4376 12.5503 15.1196 12.4752 15.6946 12.7946L15.6946 12.7947Z" fill="#FECC00"/>
</svg>
