<svg width="8" height="12" viewBox="0 0 8 12" fill="none" xmlns="http://www.w3.org/2000/svg">
<path d="M2.17695 0.691925L7.09154 5.59193C7.14987 5.65026 7.19109 5.71345 7.2152 5.78151C7.2397 5.84956 7.25195 5.92248 7.25195 6.00026C7.25195 6.07804 7.2397 6.15095 7.2152 6.21901C7.19109 6.28707 7.14987 6.35026 7.09154 6.40859L2.17695 11.3232C2.04084 11.4593 1.8707 11.5273 1.66654 11.5273C1.46237 11.5273 1.28737 11.4544 1.14154 11.3086C0.995704 11.1628 0.922787 10.9926 0.922787 10.7982C0.922787 10.6037 0.995704 10.4336 1.14154 10.2878L5.42904 6.00026L1.14154 1.71276C1.00543 1.57665 0.937369 1.40904 0.937369 1.20993C0.937369 1.01043 1.01029 0.837759 1.15612 0.691926C1.30195 0.546092 1.47209 0.473176 1.66654 0.473176C1.86098 0.473176 2.03112 0.546092 2.17695 0.691925Z" fill="#02111B"/>
</svg>
