<svg width="104" height="85" viewBox="0 0 104 85" fill="none" xmlns="http://www.w3.org/2000/svg">
<path fill-rule="evenodd" clip-rule="evenodd" d="M79.2187 0.209328C78.4265 0.542522 78.3881 0.648645 78.037 3.48196C77.3849 8.74495 74.6689 12.3878 70.9979 12.9238C69.6768 13.1166 68.9883 13.7167 68.9883 14.6753C68.9883 15.575 69.6638 16.2346 70.77 16.4149C74.7493 17.0632 77.368 20.4703 78.037 25.8686C78.3888 28.7067 78.4254 28.8075 79.2275 29.1449C80.6809 29.7564 81.7251 28.8414 81.7251 26.9562C81.7251 25.1799 82.6209 21.9407 83.5053 20.5184C84.9904 18.1305 86.7064 16.8172 88.7598 16.4972C90.0157 16.3016 90.9883 15.5143 90.9883 14.6936C90.9883 13.8564 90.1078 13.0883 88.9555 12.9203C86.8981 12.62 85.1736 11.43 83.8925 9.42663C82.6243 7.44299 81.7251 4.48571 81.7251 2.29886C81.7251 1.21748 81.1332 0.219292 80.3741 0.0207188C80.1344 -0.0420738 79.6143 0.0427305 79.2187 0.209328ZM80.7668 11.028C81.1501 11.6981 82.0134 12.7938 82.6855 13.4625L83.9073 14.6787L82.6132 16.0092C81.9016 16.7412 81.0359 17.8353 80.6897 18.4405C80.3433 19.0459 79.9642 19.482 79.8473 19.4095C79.7301 19.3372 79.4188 18.8553 79.1553 18.3388C78.892 17.8221 78.0812 16.787 77.3538 16.0386L76.0313 14.6778L77.0428 13.6919C77.5993 13.1495 78.4782 12.0542 78.9957 11.2576C79.5135 10.4612 79.967 9.80941 80.0036 9.80941C80.0402 9.80941 80.3836 10.3576 80.7668 11.028Z" fill="#FECC00"/>
<path fill-rule="evenodd" clip-rule="evenodd" d="M79.5715 54.603C79.644 54.5024 79.7055 54.396 79.7558 54.2838C80.2279 53.2308 79.6597 51.7754 78.2386 50.0579C85.8699 54.9965 90.14 59.584 89.0359 62.4205C87.0325 67.5671 68.0938 64.9996 46.735 56.6857C25.3763 48.3717 9.68561 37.4597 11.689 32.313C12.2812 30.7915 14.3537 29.9442 17.5313 29.7202C18.2415 30.6335 19.2067 31.6267 20.3968 32.6775C18.889 32.627 17.6108 32.684 16.5784 32.8365C15.316 33.023 14.7666 33.291 14.5523 33.4276C14.6179 33.6731 14.8415 34.2421 15.6456 35.2329C16.9138 36.7956 19.0959 38.7149 22.1641 40.8487C28.2606 45.0885 37.2976 49.7928 47.8232 53.89C58.3489 57.9871 68.1882 60.6304 75.5468 61.628C79.25 62.13 82.1555 62.1911 84.1464 61.897C85.4088 61.7105 85.9582 61.4425 86.1726 61.3059C86.1069 61.0604 85.8833 60.4914 85.0792 59.5006C83.955 58.1153 82.1126 56.4498 79.5715 54.603Z" fill="#FECC00"/>
<path fill-rule="evenodd" clip-rule="evenodd" d="M17.5696 24.528C16.8894 23.4698 16.4025 22.4551 16.1278 21.5014C7.71377 21.4598 1.91839 23.3448 0.392581 27.2646C-3.10353 36.2463 17.14 52.5104 45.6078 63.5915C74.0757 74.6726 99.9875 76.3746 103.484 67.393C106.03 60.8501 95.9793 50.4427 79.3281 40.9895C80.1577 42.4946 80.5647 43.8966 80.4903 45.141C84.4882 47.5406 88.019 49.9738 90.9835 52.3556C94.94 55.5343 97.75 58.5119 99.3531 61.0763C100.992 63.6985 101.059 65.3508 100.688 66.3048C100.317 67.2587 99.1502 68.431 96.1696 69.2549C93.2547 70.0606 89.1711 70.3549 84.1068 70.0222C74.0149 69.3594 60.7256 66.2568 46.6961 60.7958C32.6666 55.3348 20.7769 48.6364 12.8927 42.302C8.93622 39.1233 6.1262 36.1457 4.52309 33.5813C2.88387 30.9591 2.81693 29.3068 3.18825 28.3529C3.55957 27.3989 4.72599 26.2267 7.70659 25.4028C10.1868 24.7172 13.513 24.4019 17.5696 24.528Z" fill="#FECC00"/>
<path d="M18.9883 33.5C18.4373 30.2266 17.684 25.5156 17.6836 23.0156C17.6831 20.1128 17.9999 17 19.5 14.5C20.5867 12.6889 22.196 10.5984 24 9.5C26.0897 8.22759 29.1774 7.01593 31.1774 7.01593C33.1774 7.01593 34.5745 7.1304 37.6748 7.51593C40.26 7.83741 44.1748 9.01593 44.1748 9.01593C44.1748 9.01593 48.2692 9.96548 48.6748 10.0159C51.0001 10.3051 52.1513 10.6705 54.4883 10.5C57.0497 10.3131 58.7049 9.71995 61.1748 9.01593C62.7792 8.5586 63.8844 7.97528 65.4883 7.51593C67.7719 6.86187 71.1776 7.01576 71.1776 7.01576M88.1747 24.0159C88.1747 24.0159 87.9733 28.671 87.1747 31.5159C86.4887 33.9599 85.8549 35.2685 84.6747 37.5159C82.8929 40.9091 78.9902 45.5159 78.9902 45.5159C78.9902 45.5159 79.4805 51.0319 78.9902 53.5159C78.5 56 78.1748 58.5159 78.1748 58.5159M76.1776 75.5156C75.8866 76.907 75.8329 78.2541 75.1776 79.5156C74.6662 80.5 73.8972 81.3887 72.5 82C71.2478 82.5479 70.5317 82.7015 69.1776 82.5156C67.7693 82.3223 67.2603 81.9369 66.1776 81.0158C64.9069 79.9347 64.5218 78.2167 64.1748 77.0159C63.9564 76.2602 63.6483 74.1475 63.1776 72.0158M60.6748 53.5159C60.6748 53.5159 60.4863 49.815 59.1748 48.0159C58.2764 46.7836 57.5303 46.2148 56.1748 45.5159C54.7437 44.778 53.7841 44.4623 52.1748 44.5159C50.7541 44.5633 49.8978 44.7913 48.6748 45.5159C47.1261 46.4336 45.6748 49.0159 45.6748 49.0159M42.4883 66C42.4883 66 41.6776 77.0159 40.1748 80.0159C39.4918 81.3795 38.595 81.9602 37.1748 82.5159C35.5383 83.1563 34.3114 83.1563 32.6748 82.5159C31.2546 81.9602 30.4411 80.8364 29.6804 79.5153C28.663 77.7485 28.1776 74.5156 28.1776 74.5156L26.1748 58.5159M26.1748 26.5159C26.1748 26.5159 25.7989 22.6635 26.6776 20.5156C27.5563 18.3677 30.6748 15.5159 30.6748 15.5159" stroke="#808080" stroke-width="4" stroke-linecap="round"/>
</svg>
