<svg width="130" height="105" viewBox="0 0 130 105" fill="none" xmlns="http://www.w3.org/2000/svg">
<path fill-rule="evenodd" clip-rule="evenodd" d="M40.2441 46.0431C33.5014 46.6193 27.5234 49.5947 17.9004 57.1644C9.4316 63.8264 6.58303 65.8221 2.84248 67.7147C0.750801 68.773 0 69.4905 0 70.4313C0 71.2285 0.88207 72.0303 2.09574 72.3359C4.67746 72.9861 8.84939 74.4868 10.7539 75.4505C15.422 77.8125 17.9309 79.8573 25.4036 87.3905C33.8117 95.8668 37.8145 98.8903 43.9255 101.381C50.8935 104.221 60.2068 105.478 69.5068 104.836C81.1599 104.03 88.8314 101.288 96.2637 95.2728C97.6973 94.1125 101.447 90.5655 104.596 87.3905C112.069 79.8573 114.578 77.8125 119.246 75.4505C121.151 74.4868 125.323 72.9861 127.904 72.3359C129.118 72.0303 130 71.2285 130 70.4313C130 69.5107 129.263 68.7802 127.379 67.8343C126.377 67.3312 124.573 66.2992 123.371 65.5411C120.877 63.9684 119.656 63.7436 118.97 64.7306C118.493 65.4149 118.457 66.4719 118.892 67.0218C119.066 67.2425 119.992 67.9439 120.949 68.5804C122.921 69.8917 122.98 69.7547 119.95 70.9032C117.545 71.8141 114.154 73.7941 111.211 76.0053C109.846 77.0306 105.823 80.7652 101.943 84.6075C94.4262 92.0531 91.5713 94.3938 87.4171 96.5179C81.0715 99.7626 74.6332 101.07 65 101.07C55.3668 101.07 48.9285 99.7626 42.5829 96.5179C38.4282 94.3936 35.574 92.0531 28.0566 84.607C24.2861 80.8722 20.2414 77.1014 19.0681 76.2276C17.8948 75.3534 16.9937 74.6385 17.0653 74.6385C17.3725 74.6385 23.4625 75.9411 26.0254 76.5551C27.5615 76.9231 32.4746 78.2415 36.9434 79.4851C48.6685 82.7477 52.1231 83.5316 57.1289 84.0653C61.6048 84.5426 65.3618 84.6354 69.2755 84.3648C76.4403 83.8699 79.9383 83.1307 94.0723 79.125C101.305 77.0753 102.798 76.573 103.276 76.0275C103.992 75.2116 103.997 74.6436 103.297 73.7473C102.791 73.0998 102.642 73.0544 101.456 73.1842C100.746 73.2621 96.7954 74.3028 92.6758 75.497C79.5448 79.3036 75.9896 80.0602 69.0597 80.5232C66.2116 80.7135 63.8066 80.7143 61.001 80.5263C54.1453 80.0663 51.4924 79.5198 37.959 75.7789C30.3799 73.684 22.4329 71.7035 19.4754 71.173C18.9452 71.078 18.5479 70.9635 18.592 70.9188C18.686 70.8243 29.6248 69.9652 37.7051 69.4177C51.315 68.4953 54.4621 68.379 65.5078 68.3903C75.9098 68.401 78.2575 68.4861 89.0779 69.246L101.095 70.0899L101.722 69.4977C102.196 69.0495 102.33 68.6923 102.273 68.0287C102.123 66.2923 102.221 66.312 89.248 65.398C78.6508 64.6514 76.439 64.574 65.3809 64.5622C56.4027 64.5525 51.3881 64.6672 46.3379 64.9979C36.9566 65.6121 22.572 66.6513 16.0596 67.185C13.0922 67.4283 10.6641 67.6059 10.6641 67.5801C10.6641 67.554 11.4923 66.9193 12.5049 66.1696C13.5172 65.4202 16.3452 63.244 18.7891 61.3338C28.5317 53.7186 31.9874 51.707 37.7051 50.3216C43.8245 48.8391 51.6064 50.4941 57.997 54.6374C60.5031 56.262 62.5912 58.4379 62.9893 59.8389C63.4359 61.411 63.8848 61.863 65 61.863C66.1111 61.863 66.5643 61.4105 67.0036 59.8629C67.2039 59.1574 67.8168 58.2105 68.6976 57.2462C70.2315 55.5672 70.4704 54.5925 69.5703 53.6867C68.6814 52.7921 67.5931 53.0134 66.2276 54.3669L65.0259 55.5583L63.3224 53.9547C57.7124 48.6736 48.085 45.3731 40.2441 46.0431Z" fill="#808080"/>
<path fill-rule="evenodd" clip-rule="evenodd" d="M99.0337 0.564961C98.5652 1.03638 98.4147 1.55353 98.2705 3.18394C97.5285 11.5754 93.0951 17.4665 86.8551 18.3521C84.8411 18.638 84.152 19.1298 84.152 20.2817C84.152 21.63 84.6128 21.9747 86.9612 22.3827C89.7674 22.8705 91.6115 23.878 93.6202 26.0207C96.2511 28.8272 97.8764 32.8806 98.2793 37.6418C98.4764 39.9703 98.8951 40.6039 100.236 40.6039C101.545 40.6039 101.963 39.9365 102.195 37.4788C102.572 33.4824 103.405 30.8882 105.257 27.9365C107.239 24.7789 109.995 22.9157 113.487 22.3723C115.002 22.1367 115.542 21.9364 115.917 21.4711C116.473 20.7799 116.509 20.4309 116.111 19.5537C115.77 18.8007 114.987 18.4675 113.1 18.2726C107.719 17.7166 102.795 11.093 102.267 3.7016C102.106 1.44315 101.809 0.633949 101.008 0.266525C100.091 -0.154045 99.6875 -0.0929782 99.0337 0.564961ZM101.781 14.3676C102.619 15.8534 105.443 18.9185 106.687 19.6925L107.587 20.2518L106.851 20.8515C103.692 23.4252 102.56 24.7401 101.041 27.601L100.198 29.1888L99.5072 27.8164C98.2661 25.352 95.7415 22.3978 93.5465 20.842L92.9118 20.392L93.5465 19.8841C96.5281 17.4979 97.6895 16.16 99.3727 13.1739L100.216 11.6781L100.651 12.4074C100.89 12.8085 101.399 13.6905 101.781 14.3676ZM79.1919 26.7964C78.2959 27.1577 78.0808 27.671 77.8071 30.1043C77.3669 34.0151 76.3751 36.4125 74.2725 38.6503C73.0124 39.9915 71.7268 40.6765 69.9398 40.9594C69.315 41.0585 68.601 41.3242 68.3529 41.5501C67.8596 41.9993 67.7588 43.1787 68.1506 43.9156C68.4233 44.4282 69.6638 44.9476 70.616 44.9476C72.0732 44.9476 74.6046 46.9621 75.8632 49.1234C76.8248 50.7743 77.5695 53.2614 77.8125 55.6318C78.0885 58.3223 78.4891 59.0007 79.8021 59.0007C81.2283 59.0007 81.6343 58.403 81.8811 55.9397C82.2652 52.105 83.3641 49.3529 85.3794 47.1787C86.6621 45.7949 87.9273 45.1231 89.7722 44.8462C91.1466 44.64 91.8537 43.98 91.8537 42.9035C91.8537 41.825 91.1469 41.1666 89.7722 40.9645C85.4921 40.3359 82.509 36.1346 81.8793 29.8493C81.7295 28.3553 81.5385 27.6455 81.1978 27.3166C80.5871 26.7274 79.8422 26.5343 79.1919 26.7964ZM80.806 38.9431C81.2653 39.7158 82.2149 40.9167 82.9162 41.6112L84.1913 42.8741L82.7728 44.3249C81.9925 45.1226 81.0409 46.3363 80.6582 47.0221C80.2756 47.7076 79.9052 48.2687 79.8351 48.269C79.765 48.2692 79.4222 47.726 79.0734 47.0622C78.7245 46.3984 77.7868 45.184 76.9898 44.3633L75.5405 42.8711L76.8999 41.5031C77.6477 40.7506 78.5856 39.5507 78.984 38.8366C79.3826 38.1227 79.7675 37.5383 79.8396 37.5381C79.9118 37.5378 80.3467 38.1702 80.806 38.9431ZM109.588 39.216C108.719 39.5834 108.677 39.7005 108.292 42.8248C107.577 48.6285 104.599 52.6456 100.574 53.2366C99.1256 53.4492 98.3707 54.111 98.3707 55.168C98.3707 56.1602 99.1114 56.8876 100.324 57.0864C104.687 57.8013 107.558 61.5583 108.292 67.5112C108.678 70.641 108.718 70.7521 109.597 71.1241C111.191 71.7984 112.336 70.7894 112.336 68.7106C112.336 66.7518 113.318 63.1798 114.287 61.6115C115.916 58.9782 117.797 57.53 120.049 57.1771C121.425 56.9615 122.492 56.0932 122.492 55.1882C122.492 54.2651 121.526 53.418 120.263 53.2328C118.007 52.9016 116.117 51.5893 114.712 49.3802C113.322 47.1928 112.336 43.9317 112.336 41.5202C112.336 40.3277 111.687 39.227 110.854 39.008C110.591 38.9388 110.021 39.0323 109.588 39.216ZM111.285 51.146C111.705 51.885 112.652 53.0933 113.389 53.8307L114.728 55.1719L113.309 56.639C112.529 57.4462 111.58 58.6527 111.2 59.3201C110.821 59.9877 110.405 60.4686 110.277 60.3886C110.148 60.3089 109.807 59.7774 109.518 59.2079C109.229 58.6381 108.34 57.4967 107.543 56.6714L106.093 55.1708L107.202 54.0836C107.812 53.4855 108.776 52.2777 109.343 51.3993C109.911 50.5211 110.408 49.8023 110.448 49.8023C110.488 49.8023 110.865 50.4068 111.285 51.146Z" fill="#FECC00"/>
</svg>
