<svg width="155" height="110" viewBox="0 0 155 110" fill="none" xmlns="http://www.w3.org/2000/svg">
<path fill-rule="evenodd" clip-rule="evenodd" d="M75.8906 3.65234V7.30469H78H80.1094V3.65234V0H78H75.8906V3.65234ZM48.1814 7.27182C47.3203 7.71225 46.5448 8.13742 46.458 8.21691C46.3455 8.32004 49.6809 13.935 50.227 14.5619C50.299 14.6446 53.625 12.8769 53.625 12.7559C53.625 12.6837 49.9718 6.75146 49.7798 6.51213C49.7618 6.48957 49.0425 6.8316 48.1814 7.27182ZM104.309 9.55109C103.245 11.2445 102.375 12.6775 102.375 12.7357C102.375 12.8764 105.673 14.6691 105.759 14.575C106.384 13.889 109.648 8.30457 109.497 8.17953C109.383 8.08436 108.604 7.66133 107.766 7.23937L106.242 6.47217L104.309 9.55109ZM26.002 27.5498C25.485 28.4045 25.0814 29.1156 25.1051 29.1302C25.5776 29.4203 31.8026 32.6562 31.8881 32.6562C32.0447 32.6562 34.0052 29.6347 33.9 29.5556C33.6558 29.3717 27.18 25.9961 27.0717 25.9961C27.0005 25.9961 26.5191 26.6952 26.002 27.5498ZM125.461 27.7524C123.656 28.7117 122.15 29.5174 122.114 29.5429C122.012 29.6156 123.962 32.6562 124.111 32.6562C124.184 32.6562 125.75 31.8585 127.591 30.8838L130.938 29.1113L130.032 27.6124C129.533 26.7878 129.039 26.0896 128.934 26.0608C128.828 26.032 127.266 26.7932 125.461 27.7524ZM18 55V56.9336H21.9844H25.9688V55V53.0664H21.9844H18V55ZM130.031 55V56.9336H134.016H138V55V53.0664H134.016H130.031V55ZM28.384 79.1285L25.057 80.8887L25.8959 82.2852C26.3571 83.0532 26.8195 83.7676 26.9234 83.8726C27.0588 84.0099 33.2278 80.989 33.8857 80.4631C33.9987 80.3726 32.0299 77.3431 31.8666 77.356C31.781 77.3627 30.2137 78.1602 28.384 79.1285ZM123.006 78.8642C122.464 79.7004 122.056 80.4115 122.1 80.4444C122.863 81.0187 128.948 84.0035 129.081 83.8688C129.182 83.7659 129.642 83.0532 130.102 82.2852L130.939 80.8887L127.581 79.1162C125.733 78.1413 124.17 77.3438 124.106 77.3438C124.043 77.3438 123.548 78.0278 123.006 78.8642ZM48.2667 98.5286C47.1888 100.25 46.3978 101.734 46.5089 101.826C46.62 101.918 47.3965 102.339 48.2344 102.761L49.7578 103.528L51.6914 100.449C52.7548 98.7555 53.625 97.3225 53.625 97.2643C53.625 97.1644 50.4656 95.3863 50.3027 95.3945C50.2608 95.3966 49.3446 96.8069 48.2667 98.5286ZM104.069 96.2268C103.26 96.6782 102.538 97.1034 102.463 97.1717C102.389 97.2398 103.209 98.6966 104.285 100.409L106.242 103.523L107.548 102.866C109.972 101.646 109.955 102.055 107.735 98.5205C106.656 96.8028 105.721 95.3992 105.656 95.4016C105.592 95.4039 104.877 95.7752 104.069 96.2268ZM75.8906 106.348V110H78H80.1094V106.348V102.695H78H75.8906V106.348Z" fill="#FECC00"/>
<path fill-rule="evenodd" clip-rule="evenodd" d="M57.6765 16.6382C51.3099 17.7664 46.3325 21.136 43.7459 26.0688C42.1449 29.1219 41.6895 31.7804 41.9956 36.2863C42.4588 43.1078 43.9768 48.0709 47.8381 55.3896L49.9351 59.3642L51.6793 73.7925C53.6363 89.982 53.5653 89.6699 55.7068 91.4795C57.3573 92.8738 58.5978 93.3052 60.9577 93.3052C63.3081 93.3052 64.5584 92.8736 66.182 91.502C68.1378 89.8495 68.1819 89.6808 70.6829 74.2958C73.1907 58.8688 73.2343 58.7033 75.0847 57.5808C75.9139 57.0778 76.2784 57.0009 77.8327 57.0009C79.3871 57.0009 79.7516 57.0778 80.5808 57.5808C82.4314 58.7035 82.4748 58.8683 84.9809 74.2958C87.4175 89.2943 87.463 89.478 89.1941 91.2341C89.6715 91.7186 90.6592 92.3837 91.3888 92.7122C92.5428 93.2317 92.9902 93.3093 94.8249 93.3076C96.6512 93.3059 97.0928 93.2292 98.1156 92.7359C99.5506 92.0439 101.149 90.5007 101.776 89.2011C102.143 88.441 102.605 85.2213 103.985 73.8021L105.73 59.3642L107.827 55.3896C110.124 51.0364 111.267 48.3305 112.16 45.1289C113.806 39.2239 114.23 32.6338 113.193 29.0712C112.192 25.6367 109.692 22.2422 106.558 20.0611C103.274 17.7764 100.18 16.7544 95.9968 16.5729C92.9345 16.4399 91.2207 16.7229 87.5124 17.9735C80.9342 20.1917 75.3214 20.2598 68.9265 18.1993C67.4441 17.7217 65.7038 17.1859 65.0593 17.0088C63.9008 16.6902 58.8209 16.4352 57.6765 16.6382ZM66.8171 21.4118C71.0774 22.7636 73.2214 23.1723 76.7781 23.3104C81.1257 23.4793 84.5345 22.8908 90.1374 21.004C92.0715 20.3526 92.4807 20.2925 95.0593 20.2781C97.3475 20.2654 98.1777 20.3516 99.5124 20.7391C104.293 22.1275 108.104 25.8026 109.349 30.2241C109.797 31.8135 109.852 35.7174 109.467 38.6004C108.781 43.7324 107.295 47.9878 103.985 54.295L101.776 58.5048L100.098 72.6379C99.1754 80.4109 98.326 87.0732 98.2105 87.4428C97.3895 90.0667 93.4187 90.5718 91.7527 88.2643C91.2451 87.5609 90.9432 86.0016 88.963 73.8496C87.7278 66.2712 86.5276 59.6091 86.2588 58.8393C85.6262 57.0288 84.4639 55.6106 82.7563 54.5654C81.0327 53.5103 79.494 53.1599 77.1331 53.2852C72.9137 53.509 69.7402 56.2419 68.9513 60.331C68.803 61.0991 67.7398 67.4999 66.5886 74.5554C65.3717 82.0132 64.3459 87.6488 64.1377 88.0177C63.3943 89.3356 61.842 89.9644 60.0809 89.6617C58.9065 89.4597 57.542 88.1485 57.3343 87.0228C57.2497 86.5639 56.4076 79.8629 55.463 72.1317L53.7455 58.0751L51.5181 53.8857C48.9966 49.143 47.9117 46.4837 47.0464 42.9237C45.8816 38.1331 45.5757 32.8482 46.3121 30.2428C47.6429 25.5353 51.6277 21.8574 56.7863 20.5752C58.1431 20.2381 59.0056 20.1692 60.9577 20.2418C63.1653 20.3239 63.7684 20.4442 66.8171 21.4118ZM54.5415 25.8011C52.7567 27.4371 51.4527 29.3172 50.6188 31.456C50.2484 32.406 50.094 33.4364 50.0028 35.5702L49.8809 38.4169H51.9038H53.9265V36.291C53.9265 32.7698 55.085 30.255 57.7072 28.084L58.8995 27.0968L57.8778 25.6715C57.316 24.8876 56.7193 24.2441 56.552 24.2417C56.3846 24.2392 55.4799 24.9411 54.5415 25.8011Z" fill="#808080"/>
</svg>
