<svg width="155" height="110" viewBox="0 0 155 110" fill="none" xmlns="http://www.w3.org/2000/svg">
<path d="M45.5055 3.09468C48.426 1.64111 51.0906 0.909166 56.3616 0.112537C56.6596 0.0674087 57.8301 0.0177672 58.9626 0.00207957C65.0038 -0.081301 71.155 2.34641 75.7131 6.613L76.9657 7.7857L77.8806 6.92589C83.0385 2.07929 89.3183 -0.318979 95.9061 0.0420507C100.673 0.303152 104.915 1.35959 108.632 3.21137C112.09 4.93464 115.102 7.33699 115.102 8.37323C115.102 9.08842 114.579 9.77889 113.913 9.94479C113.25 10.1098 112.681 9.81262 110.686 8.26127C105.329 4.09396 96.0985 2.1588 89.6332 3.84726C84.975 5.0638 80.2266 8.42825 77.2315 12.6351C73.6897 17.6094 71.3295 19.3068 66.8743 20.0841C64.2945 20.5343 62.5328 20.4886 61.9972 19.9576C61.2927 19.2591 61.3448 18.3458 62.1287 17.6474C62.556 17.267 62.9346 17.163 63.9059 17.1602C65.6638 17.1548 67.9579 16.6275 69.5096 15.8721C70.9556 15.1681 72.5472 13.6226 74.027 11.4858L74.894 10.2336L73.4851 8.94529C70.7757 6.4673 67.646 4.74124 64.1647 3.80449C62.6141 3.38737 61.8073 3.31023 59.071 3.31732C51.5976 3.33666 45.3937 5.72268 40.8308 10.3327C38.1571 13.0337 36.5887 15.8459 35.6114 19.6917C34.8265 22.7787 35.2529 30.7414 36.4313 35.006C37.8207 40.0351 39.5448 43.0211 44.12 48.3241C45.3947 49.8016 46.7291 51.5182 47.0852 52.1386L47.7329 53.2668H76.9532H106.173L106.821 52.1386C107.177 51.5182 108.512 49.8016 109.786 48.3241C113.523 43.9931 115.112 41.5697 116.408 38.2239C118.971 31.6093 119.492 22.3926 117.58 17.4757C117.26 16.6541 116.954 15.5848 116.898 15.0993C116.81 14.3332 116.875 14.1559 117.388 13.7562C118.569 12.835 119.515 13.4193 120.359 15.5897C121.724 19.0995 122.161 22.0685 121.95 26.4045C121.638 32.8111 120.517 37.5917 118.297 41.9829C117.055 44.439 115.685 46.3705 112.52 50.128C110.731 52.2523 109.5 53.9319 109.067 54.8403C108.471 56.0895 108.3 56.278 107.575 56.4774C107.066 56.6175 103.418 56.7033 97.924 56.7039L89.0913 56.7052V57.7361V58.7671L85.7317 60.4659L85.7943 58.5856L85.857 56.7052H76.9616H68.0663V62.9372C68.0663 66.3649 68.1395 69.1644 68.2288 69.1583L64.815 70.8719V63.7885V56.7052L55.9823 56.7039C50.488 56.7033 46.8401 56.6175 46.3309 56.4774C45.6065 56.278 45.4348 56.0895 44.8394 54.8403C44.4066 53.9319 43.1756 52.2523 41.3865 50.128C39.8573 48.3128 38.1272 46.1238 37.542 45.2638C33.7833 39.7413 32.0234 33.309 32.0003 25.0077C31.986 19.8746 32.5668 17.1959 34.494 13.5106C36.7465 9.20317 40.6489 5.51186 45.5055 3.09468Z" fill="#808080"/>
<path d="M64.815 85.087V82.0978L68.0663 80.56V83.4605C68.0663 85.0559 68.2307 87.0282 68.32 87.0222L64.7889 88.5225L64.815 85.087Z" fill="#808080"/>
<path d="M64.8603 100.804L64.7699 99.5654L68.0663 97.7519V99.1476V100.543L72.5097 103.479L76.9532 106.415L81.3966 103.479L85.84 100.543V94.849C85.84 90.4307 85.7794 89.1574 85.5691 89.1665L89.1098 87.3282L89.0463 94.6715L88.983 102.015L88.4775 102.548C87.5771 103.498 77.5215 110 76.9532 110C76.3896 110 66.3322 103.501 65.4425 102.562C65.0818 102.181 64.9264 101.712 64.8603 100.804Z" fill="#808080"/>
<path d="M89.0939 73.0446V76.2546L85.7921 77.9727V74.8104C85.839 72.6053 85.7902 71.9656 85.5754 71.9746L89.0965 70.1363L89.0939 73.0446Z" fill="#808080"/>
<path d="M62.5011 71.1208L65.0815 69.7967L68.4954 68.0569C68.5847 68.0508 72.5595 66.0628 77.3281 63.6388L85.9982 59.2318L89.3579 57.5071L90.7673 57.4167C91.9713 57.3395 92.3522 57.4128 93.3839 57.9212C95.507 58.9667 96.5544 61.1524 96.055 63.4957C95.6581 65.3591 94.7831 66.253 91.9 67.7408L89.3631 69.0499L85.842 70.9162C85.6896 70.9227 81.6877 72.8868 76.9488 75.2805L68.3328 79.6327L65.0815 81.194L64.3123 81.4078C63.1899 81.7198 61.3733 81.2813 60.2661 80.4315C58.0078 78.6976 57.6306 75.5287 59.3991 73.1475C59.7485 72.6769 60.7723 72.0082 62.5011 71.1208Z" fill="#FECC00"/>
<path d="M62.8598 88.3787L65.0815 87.264L68.4954 85.5114C68.5847 85.5053 72.5595 83.5172 77.3281 81.0932L85.9982 76.6862L89.3579 74.9549L90.821 74.8744C92.1012 74.8039 92.4332 74.8725 93.4763 75.4223C95.4892 76.4833 96.5283 78.7286 96.0487 80.9804C95.659 82.8094 94.7703 83.7136 91.9065 85.1952L89.3764 86.5043L85.8357 88.3706C85.6868 88.3772 81.6877 90.3412 76.9488 92.7349L68.3328 97.0871L65.0365 98.9284L63.4875 98.9214C61.6471 98.9126 60.4952 98.4054 59.4594 97.1469C58.6036 96.1073 58.0693 94.3437 58.2711 93.2251C58.6552 91.0955 59.7505 89.9387 62.8598 88.3787Z" fill="#FECC00"/>
<path fill-rule="evenodd" clip-rule="evenodd" d="M92.8409 60.2849C93.394 60.7206 93.6185 61.5599 93.4035 62.3885C93.2207 63.0922 92.6955 63.3868 78.6899 70.6421L64.1659 78.1662L63.3643 77.8191C62.2209 77.3241 61.9033 75.8622 62.7293 74.8977C62.9261 74.6678 69.3584 71.2229 77.0231 67.242C91.2866 59.834 91.9164 59.5571 92.8409 60.2849ZM92.9416 78.3941C93.5945 79.1456 93.6883 79.6243 93.3482 80.4677C93.0587 81.1861 92.2349 81.6471 78.7638 88.6271C70.9112 92.6957 64.3368 96.0248 64.1542 96.0248C62.7161 96.0248 61.7294 94.0392 62.6131 92.9236C63.0709 92.3453 91.1474 77.9154 91.8395 77.9026C92.2657 77.8948 92.6607 78.0708 92.9416 78.3941Z" fill="#FDFDFD"/>
</svg>
