<svg width="155" height="110" viewBox="0 0 155 110" fill="none" xmlns="http://www.w3.org/2000/svg">
<path d="M98.6432 105.272C98.6432 105.272 100.624 88.9462 98.6432 78.7993C96.7258 68.9752 89.1529 54.9902 89.1529 54.9902" stroke="#FECC00" stroke-width="2.66395" stroke-linecap="round" stroke-linejoin="round"/>
<path d="M94.9798 66.4781C95.5858 63.8544 96.4824 60.7733 96.6236 58.6528M93.8142 45C96.1169 50.4505 96.9149 54.2792 96.6236 58.6528M96.6236 58.6528C99.9412 56.3951 101.428 54.6066 103.305 50.3279" stroke="#FECC00" stroke-width="2.66395" stroke-linecap="round"/>
<path d="M61.6614 105.272C61.6614 105.272 59.681 88.9462 61.6614 78.7993C63.5789 68.9752 71.1518 54.9902 71.1518 54.9902" stroke="#FECC00" stroke-width="2.66395" stroke-linecap="round" stroke-linejoin="round"/>
<path d="M65.3248 66.4781C64.7189 63.8544 63.8223 60.7733 63.6811 58.6528M66.4905 45C64.1878 50.4505 63.3898 54.2792 63.6811 58.6528M63.6811 58.6528C60.3635 56.3951 58.8763 54.6066 57 50.3279" stroke="#FECC00" stroke-width="2.66395" stroke-linecap="round"/>
<path fill-rule="evenodd" clip-rule="evenodd" d="M58.1201 26.3773C51.2086 27.6078 45.8051 31.283 42.9972 36.6633C41.2591 39.9933 40.7647 42.8929 41.097 47.8076C41.5998 55.2478 43.2478 60.6611 47.4396 68.6435L49.716 72.9787L51.6096 88.7156C53.7341 106.374 53.657 106.033 55.9818 108.007C57.7735 109.528 59.1202 109.998 61.6822 109.998C64.2336 109.998 65.591 109.527 67.3535 108.032C69.4768 106.229 69.5246 106.045 72.2397 89.2647C74.9622 72.4383 75.0095 72.2579 77.0183 71.0335C77.9185 70.4849 78.3141 70.401 80.0015 70.401C81.689 70.401 82.0846 70.4849 82.9848 71.0335C84.9938 72.2581 85.0409 72.4378 87.7616 89.2647C90.4067 105.624 90.456 105.824 92.3353 107.739C92.8536 108.268 93.9258 108.993 94.7178 109.351C95.9707 109.918 96.4564 110.003 98.4481 110.001C100.431 109.999 100.91 109.915 102.02 109.377C103.578 108.622 105.313 106.939 105.994 105.522C106.392 104.693 106.894 101.181 108.392 88.7262L110.287 72.9787L112.563 68.6435C115.057 63.8955 116.297 60.9441 117.266 57.4521C119.054 51.0116 119.515 43.8237 118.388 39.938C117.302 36.192 114.588 32.4896 111.185 30.1107C107.62 27.6188 104.261 26.5041 99.7203 26.3061C96.3958 26.161 94.5354 26.4696 90.5097 27.8337C83.3685 30.2531 77.2753 30.3274 70.333 28.08C68.7237 27.5591 66.8345 26.9746 66.1348 26.7815C64.8771 26.434 59.3625 26.1559 58.1201 26.3773ZM68.0431 31.5839C72.6679 33.0583 74.9955 33.504 78.8566 33.6547C83.5764 33.8389 87.2769 33.197 93.3594 31.1392C95.459 30.4287 95.9033 30.363 98.7026 30.3473C101.187 30.3335 102.088 30.4275 103.537 30.8502C108.726 32.3645 112.864 36.3729 114.216 41.1955C114.702 42.929 114.761 47.1871 114.343 50.3315C113.599 55.929 111.986 60.5704 108.392 67.4496L105.994 72.0413L104.173 87.4563C103.171 95.9344 102.249 103.201 102.123 103.604C101.232 106.466 96.9215 107.017 95.113 104.5C94.5619 103.733 94.2342 102.032 92.0844 88.7779C90.7436 80.5122 89.4406 73.2458 89.1487 72.4062C88.462 70.4315 87.2003 68.8847 85.3465 67.7446C83.4753 66.5938 81.805 66.2117 79.242 66.3483C74.6614 66.5924 71.2164 69.5731 70.3599 74.0332C70.1989 74.8709 69.0448 81.8523 67.795 89.5477C66.4739 97.6821 65.3603 103.829 65.1343 104.231C64.3273 105.669 62.6421 106.354 60.7303 106.024C59.4553 105.804 57.974 104.374 57.7486 103.146C57.6567 102.645 56.7425 95.3366 55.7172 86.9042L53.8527 71.5727L51.4345 67.0032C48.6973 61.8304 47.5195 58.9298 46.5801 55.047C45.3156 49.8219 44.9835 44.0576 45.783 41.2158C47.2277 36.0814 51.5536 32.0699 57.1537 30.6714C58.6266 30.3038 59.563 30.2285 61.6822 30.3077C64.0787 30.3973 64.7334 30.5285 68.0431 31.5839Z" fill="#808080"/>
</svg>
