<svg width="155" height="110" viewBox="0 0 155 110" fill="none" xmlns="http://www.w3.org/2000/svg">
<path fill-rule="evenodd" clip-rule="evenodd" d="M56.3817 3.04872C51.1761 4.00738 47.2386 6.1121 43.9801 9.67815C36.6856 17.6612 36.6469 29.5913 43.8896 37.5716L45.4874 39.332L47.0329 50.9702C47.8828 57.3712 48.5813 62.7082 48.5852 62.8302C48.5985 63.2461 47.0216 61.4951 45.7343 59.6645C43.1554 55.9972 41.3984 51.5543 40.6073 46.7005C40.085 43.4936 39.5558 42.454 37.8982 41.3776C36.5541 40.505 35.1841 40.3005 32.9238 40.6354C27.7224 41.4062 23.1835 45.8608 22.2618 51.0993C21.892 53.2012 21.9236 102.81 22.2955 104.099C22.6673 105.387 24.5652 107.33 25.8236 107.711C26.5514 107.931 38.2387 107.996 77.0436 107.996C133.743 107.996 128.647 108.175 130.449 106.122C130.994 105.502 131.562 104.576 131.712 104.064C132.078 102.812 132.104 53.1709 131.739 51.0993C130.858 46.0921 126.466 41.5948 121.575 40.6929C118.647 40.1527 116.948 40.4802 115.39 41.8847C114.084 43.0617 113.742 43.8705 113.21 47.0453C112.267 52.6748 109.803 58.0517 106.347 62.0219C105.514 62.9787 105.427 63.0256 105.419 62.5231C105.413 62.2182 106.082 56.8803 106.904 50.6611L108.399 39.3533L109.765 37.9155C116.638 30.6792 117.387 19.4517 111.529 11.4737C108.66 7.56522 104.62 4.81357 99.7766 3.46929C98.4513 3.1015 97.4057 3.0323 93.3811 3.04661C89.0878 3.06186 88.258 3.13082 85.6708 3.68837C84.0763 4.03201 81.7051 4.70309 80.4015 5.17948C77.4061 6.27442 76.5955 6.27442 73.6021 5.18042C69.5555 3.70127 66.3175 3.13574 61.3073 3.03277C58.9132 2.98351 56.6967 2.99055 56.3817 3.04872ZM67.6075 7.34965C68.8046 7.61236 71.0163 8.25178 72.5224 8.77087C76.2899 10.0692 77.7115 10.0692 81.4788 8.77063C86.1792 7.15028 88.1611 6.81907 93.2666 6.79961C98.2669 6.78037 99.4073 6.98444 102.323 8.42019C105.708 10.087 108.362 12.7856 110.099 16.3263C111.454 19.0893 111.919 21.3253 111.766 24.3531C111.548 28.6901 109.941 32.2862 106.748 35.5811C105.76 36.6017 104.951 37.4841 104.951 37.5423C104.951 37.6004 103.661 47.328 102.084 59.1588C99.5372 78.2742 99.1533 80.8056 98.6362 81.8902C98.0084 83.2071 97.1855 84.033 95.6987 84.8389C94.3731 85.5574 91.7071 85.5602 90.3873 84.8445C89.3231 84.2675 87.861 82.706 87.51 81.7715C87.3794 81.4234 85.8321 74.335 84.0717 66.0193C81.9111 55.8128 80.7104 50.6074 80.3763 49.9989C78.9293 47.3629 74.8894 47.3995 73.5634 50.0606C73.3176 50.5541 71.6905 57.6977 69.9228 66.0458C68.1651 74.3469 66.6203 81.4234 66.4902 81.7715C66.1399 82.7074 64.6735 84.2727 63.6421 84.8115C62.3382 85.4924 60.6221 85.6144 59.0264 85.1394C57.2071 84.5978 55.444 82.8238 54.9148 81.0026C54.6238 80.0013 49.0505 39.0313 49.0505 37.8939C49.0505 37.736 48.1999 36.6826 47.1605 35.5534C43.8798 31.989 42.4488 28.7316 42.2353 24.343C42.0875 21.3021 42.5499 19.0818 43.9041 16.3263C46.305 11.4418 50.4936 8.1284 55.6944 7.00016C57.8985 6.52188 64.7495 6.72314 67.6075 7.34965ZM36.2153 44.6584C36.7097 45.1646 36.7271 45.2258 37.2588 48.3C37.9745 52.4402 39.945 57.4606 42.2083 60.9117C44.1192 63.8254 46.2216 66.1572 49.3392 68.8207C49.4347 68.9025 49.8716 71.7367 50.3099 75.1189C51.237 82.274 51.2109 82.1429 52.0572 83.8791C55.0889 90.0976 63.5378 91.1775 68.1617 85.9374C69.8541 84.0193 70.1173 83.0832 73.4992 66.9477C75.9089 55.4499 76.7492 51.8184 76.9996 51.8184C77.2496 51.8184 78.0831 55.3863 80.4565 66.6176C82.1764 74.7572 83.7571 81.9512 83.9691 82.6045C84.4916 84.2154 85.9162 86.1898 87.3141 87.2404C92.2723 90.9668 99.3739 89.1724 102.095 83.5057C102.847 81.9395 102.94 81.4657 103.702 75.394C104.147 71.8477 104.584 68.8842 104.674 68.8089C108.905 65.2441 111.992 61.2945 114.095 56.755C115.565 53.5814 116.142 51.5414 117.231 45.6677C117.284 45.3809 117.558 44.9218 117.84 44.6472C118.295 44.2043 118.533 44.1628 119.952 44.2796C123.198 44.5472 126.007 46.6004 127.479 49.7824L128.204 51.3493L128.266 77.2154L128.329 103.082L127.761 103.662L127.194 104.243H77.0006H26.8071L26.2399 103.662L25.6726 103.082L25.7349 77.2154L25.797 51.3493L26.5221 49.7824C27.4426 47.7929 28.7533 46.3365 30.4628 45.4036C32.7683 44.1454 35.3834 43.8067 36.2153 44.6584Z" fill="#808080"/>
<path d="M116.301 81.1905C112.056 78.1128 112.097 77.8771 117.557 73.9794L121.381 71.25L122.362 72.6766C122.902 73.4612 123.343 74.1816 123.343 74.2775C123.343 74.3734 122.203 75.261 120.809 76.2499C119.415 77.2388 118.307 78.0755 118.346 78.1091C118.385 78.1424 119.679 79.0846 121.221 80.2025C125.262 83.132 125.259 83.512 121.166 86.4858C119.781 87.4925 118.618 88.4082 118.581 88.5211C118.544 88.6341 119.7 89.5841 121.149 90.6326C123.841 92.5801 124.265 93.0394 124.252 93.9924C124.241 94.8484 123.861 95.2016 119.892 98.0433L116.155 100.719L115.167 99.2821C114.624 98.4918 114.179 97.7759 114.179 97.6913C114.179 97.6063 115.317 96.7211 116.708 95.7235L119.236 93.9101L116.366 91.8091C112.225 88.7784 112.234 88.4432 116.538 85.2954C118.018 84.2124 119.202 83.3032 119.167 83.2748C119.133 83.2465 117.843 82.3084 116.301 81.1905Z" fill="#FECC00"/>
<path d="M33.2306 81.1905C28.9858 78.1128 29.0268 77.8771 34.4867 73.9794L38.3106 71.25L39.2916 72.6766C39.8314 73.4612 40.2728 74.1816 40.2728 74.2775C40.2728 74.3734 39.1324 75.261 37.7386 76.2499C36.3447 77.2388 35.2363 78.0755 35.2758 78.1091C35.3152 78.1424 36.6089 79.0846 38.1512 80.2025C42.1916 83.132 42.1883 83.512 38.0962 86.4858C36.7108 87.4925 35.5475 88.4082 35.5108 88.5211C35.4739 88.6341 36.6295 89.5841 38.0785 90.6326C40.7705 92.5801 41.1947 93.0394 41.1819 93.9924C41.1705 94.8484 40.7904 95.2016 36.8215 98.0433L33.0851 100.719L32.097 99.2821C31.5536 98.4918 31.1089 97.7759 31.1089 97.6913C31.1089 97.6063 32.2466 96.7211 33.6372 95.7235L36.1656 93.9101L33.2957 91.8091C29.1552 88.7784 29.1641 88.4432 33.4677 85.2954C34.9481 84.2124 36.1314 83.3032 36.0971 83.2748C36.0627 83.2465 34.7729 82.3084 33.2306 81.1905Z" fill="#FECC00"/>
</svg>
