<svg width="97" height="111" viewBox="0 0 97 111" fill="none" xmlns="http://www.w3.org/2000/svg">
<path d="M24.1241 34.8233C23.2946 33.745 22.8496 33.9737 22 32.062" stroke="#FECC00" stroke-width="2.12" stroke-linecap="round"/>
<path d="M28.1602 38.859C27.511 37.327 27.134 37.3847 26.0361 36.0977" stroke="#FECC00" stroke-width="2.12" stroke-linecap="round"/>
<path d="M31.5582 44.5941C30.795 43.8968 29.9977 43.6834 29.0093 41.6204" stroke="#FECC00" stroke-width="2.12" stroke-linecap="round"/>
<path d="M38.3556 46.2933C36.8034 45.6939 36.6564 46.5057 34.2886 45.7772" stroke="#FECC00" stroke-width="2.12" stroke-linecap="round"/>
<path d="M44.778 45.6073C43.1208 45.4572 42.9939 45.8168 41.3413 46.1779" stroke="#FECC00" stroke-width="2.12" stroke-linecap="round"/>
<path d="M47.7942 44.0473C48.8971 42.8014 48.9761 42.47 48.9761 40.7707" stroke="#FECC00" stroke-width="2.12" stroke-linecap="round"/>
<path d="M49.3314 37.5817C50.5614 36.4611 50.382 36.1247 51.2319 34.6621" stroke="#FECC00" stroke-width="2.12" stroke-linecap="round"/>
<path d="M55.9852 31C54.4577 31.6599 54.518 32.0364 53.2388 33.1433" stroke="#FECC00" stroke-width="2.12" stroke-linecap="round"/>
<path fill-rule="evenodd" clip-rule="evenodd" d="M17.1201 27.3773C10.2086 28.6078 4.80511 32.283 1.99716 37.6633C0.259107 40.9933 -0.235266 43.893 0.0970268 48.8076C0.599792 56.2478 2.24777 61.6611 6.4396 69.6435L8.71604 73.9787L10.6096 89.7156C12.7341 107.374 12.657 107.033 14.9818 109.007C16.7735 110.528 18.1202 110.998 20.6822 110.998C23.2336 110.998 24.591 110.527 26.3535 109.032C28.4768 107.229 28.5246 107.045 31.2397 90.2647C33.9622 73.4383 34.0095 73.2579 36.0183 72.0335C36.9185 71.4849 37.3141 71.401 39.0015 71.401C40.6889 71.401 41.0846 71.4849 41.9848 72.0335C43.9938 73.2581 44.0409 73.4378 46.7616 90.2647C49.4067 106.624 49.456 106.824 51.3353 108.739C51.8536 109.268 52.9258 109.993 53.7178 110.351C54.9707 110.918 55.4564 111.003 57.4481 111.001C59.4307 110.999 59.9101 110.915 61.0204 110.377C62.5783 109.622 64.3133 107.939 64.9939 106.522C65.3924 105.693 65.8936 102.181 67.3922 89.7262L69.287 73.9787L71.5634 69.6435C74.0569 64.8955 75.297 61.9441 76.2664 58.4521C78.0543 52.0116 78.5146 44.8237 77.388 40.938C76.302 37.192 73.5882 33.4896 70.1852 31.1107C66.6203 28.6188 63.2612 27.5041 58.7203 27.3061C55.3958 27.161 53.5354 27.4696 49.5097 28.8337C42.3685 31.2531 36.2752 31.3274 29.333 29.08C27.7237 28.5591 25.8345 27.9746 25.1348 27.7815C23.8771 27.434 18.3625 27.1559 17.1201 27.3773ZM27.0431 32.5839C31.6679 34.0583 33.9955 34.504 37.8566 34.6547C42.5764 34.8389 46.2769 34.197 52.3594 32.1392C54.459 31.4287 54.9033 31.363 57.7026 31.3473C60.1866 31.3335 61.0878 31.4275 62.5368 31.8502C67.7261 33.3645 71.8637 37.3729 73.2158 42.1955C73.7017 43.929 73.7613 48.1871 73.3432 51.3315C72.599 56.929 70.9856 61.5704 67.3922 68.4496L64.9937 73.0413L63.1726 88.4563C62.1709 96.9344 61.2489 104.201 61.1235 104.604C60.2322 107.466 55.9215 108.017 54.113 105.5C53.5619 104.733 53.2342 103.032 51.0844 89.7779C49.7436 81.5122 48.4406 74.2458 48.1487 73.4062C47.462 71.4315 46.2003 69.8847 44.3465 68.7446C42.4753 67.5938 40.805 67.2117 38.242 67.3483C33.6614 67.5924 30.2164 70.5731 29.3599 75.0332C29.1989 75.8709 28.0448 82.8523 26.795 90.5477C25.4739 98.6821 24.3603 104.829 24.1343 105.231C23.3273 106.669 21.6421 107.354 19.7303 107.024C18.4553 106.804 16.974 105.374 16.7486 104.146C16.6567 103.645 15.7425 96.3366 14.7172 87.9042L12.8527 72.5727L10.4345 68.0032C7.69728 62.8304 6.51949 59.9298 5.58011 56.047C4.31557 50.8219 3.98353 45.0576 4.78297 42.2158C6.22765 37.0814 10.5536 33.0699 16.1537 31.6714C17.6266 31.3038 18.563 31.2285 20.6822 31.3077C23.0787 31.3973 23.7334 31.5285 27.0431 32.5839Z" fill="#808080"/>
<path d="M43.6836 4.7491L62.9272 8.18546M62.9272 8.18546C63.389 5.52128 65 4.00001 68 3.83273H95M62.9272 8.18546C62.9121 11.0887 64 13 68 13.6836H77.5891M95 13.6836H77.5891M77.5891 8.64364V13.6836" stroke="#FECC00" stroke-width="3.29" stroke-linecap="round"/>
<path d="M37.9564 22.8473V15.5164M37.9564 15.5164C36.314 15.4277 34.2016 14.7852 33.6036 14.3709C33.182 14.0788 32.5 5.32079 32.5 4.5C32.5 3.67921 33.2073 2 33.6036 2C34 2 41 2 42.08 2C42.6402 2 43.2255 4.52 43.2255 4.52C43.2255 4.52 42.6198 14 42.08 14.3709C41.5402 14.7418 39.8493 15.6186 37.9564 15.5164Z" stroke="#FECC00" stroke-width="3.29" stroke-linecap="round"/>
</svg>
