<svg width="78" height="103" viewBox="0 0 78 103" fill="none" xmlns="http://www.w3.org/2000/svg">
<path fill-rule="evenodd" clip-rule="evenodd" d="M17.0816 0.126864C10.2534 1.62955 4.91514 6.11787 2.14104 12.6884C0.423951 16.7552 -0.0644607 20.2963 0.263826 26.2981C0.760528 35.3844 2.38863 41.9952 6.52992 51.7437L8.77891 57.0378L10.6496 76.2563C12.7485 97.8208 12.6723 97.405 14.9691 99.8154C16.7392 101.673 18.0697 102.247 20.6007 102.247C23.1215 102.247 24.4625 101.672 26.2037 99.8454C28.3014 97.6442 28.3487 97.4196 31.031 76.9268C33.7206 56.3779 33.7674 56.1576 35.7519 54.6623C36.6413 53.9924 37.0322 53.89 38.6992 53.89C40.3663 53.89 40.7572 53.9924 41.6465 54.6623C43.6313 56.1579 43.6778 56.3774 46.3657 76.9268C48.9789 96.9047 49.0277 97.1494 50.8843 99.4886C51.3963 100.134 52.4556 101.02 53.2381 101.457C54.4758 102.149 54.9557 102.253 56.9234 102.25C58.882 102.248 59.3556 102.146 60.4526 101.489C61.9917 100.567 63.7058 98.5116 64.3782 96.7806C64.7718 95.7681 65.267 91.4795 66.7476 76.2692L68.6195 57.0378L70.8685 51.7437C73.3319 45.9453 74.5571 42.3409 75.5148 38.0764C77.2811 30.2109 77.7359 21.4329 76.6228 16.6876C75.55 12.1129 72.8689 7.59136 69.5068 4.68615C65.9849 1.643 62.6664 0.281687 58.1802 0.0398718C54.8959 -0.137269 53.0578 0.239614 49.0807 1.90542C42.0256 4.86014 36.0058 4.95087 29.1472 2.20619C27.5573 1.57003 25.6909 0.856318 24.9997 0.620512C23.7572 0.196119 18.309 -0.143568 17.0816 0.126864ZM26.8849 6.48531C31.454 8.28591 33.7536 8.83021 37.5681 9.01422C42.2309 9.23915 45.8868 8.45532 51.896 5.94216C53.9703 5.07448 54.4092 4.99436 57.1748 4.97518C59.6289 4.9583 60.5192 5.07305 61.9507 5.58931C67.0774 7.43855 71.1651 12.3338 72.5009 18.2232C72.981 20.3403 73.0398 25.5404 72.6268 29.3805C71.8916 36.2163 70.2977 41.8845 66.7476 50.2856L64.3779 55.8932L62.5789 74.7184C61.5892 85.0721 60.6783 93.9463 60.5544 94.4385C59.6739 97.9335 55.4152 98.6063 53.6284 95.5328C53.084 94.5959 52.7602 92.5189 50.6364 76.3324C49.3117 66.238 48.0245 57.3641 47.7361 56.3387C47.0577 53.9272 45.8112 52.0381 43.9797 50.6459C42.1311 49.2405 40.4809 48.7738 37.9489 48.9406C33.4235 49.2388 30.02 52.8789 29.1739 58.3256C29.0148 59.3487 27.8746 67.8746 26.6398 77.2725C25.3347 87.2064 24.2345 94.7129 24.0113 95.2043C23.214 96.9597 21.5491 97.7973 19.6604 97.3941C18.4008 97.1251 16.9373 95.3786 16.7146 93.879C16.6238 93.2678 15.7207 84.3421 14.7077 74.0442L12.8656 55.3208L10.4767 49.7405C7.77244 43.4232 6.60885 39.881 5.6808 35.1391C4.4315 28.7581 4.10347 21.7185 4.89326 18.2481C6.32053 11.9778 10.5943 7.07883 16.1269 5.37096C17.5821 4.92195 18.5071 4.83009 20.6007 4.92682C22.9684 5.03614 23.6151 5.1964 26.8849 6.48531Z" fill="#808080"/>
</svg>
