<svg width="78" height="109" viewBox="0 0 78 109" fill="none" xmlns="http://www.w3.org/2000/svg">
<path fill-rule="evenodd" clip-rule="evenodd" d="M17.1201 25.3772C10.2086 26.6077 4.80511 30.2829 1.99716 35.6632C0.259107 38.9932 -0.235266 41.8929 0.0970268 46.8075C0.599792 54.2477 2.24777 59.661 6.4396 67.6435L8.71604 71.9786L10.6096 87.7155C12.7341 105.374 12.657 105.033 14.9818 107.007C16.7735 108.528 18.1202 108.998 20.6822 108.998C23.2336 108.998 24.591 108.527 26.3535 107.031C28.4768 105.229 28.5246 105.045 31.2397 88.2646C33.9622 71.4382 34.0095 71.2578 36.0183 70.0334C36.9185 69.4848 37.3141 69.4009 39.0015 69.4009C40.6889 69.4009 41.0846 69.4848 41.9848 70.0334C43.9938 71.258 44.0409 71.4377 46.7616 88.2646C49.4067 104.623 49.456 104.824 51.3353 106.739C51.8536 107.268 52.9258 107.993 53.7178 108.351C54.9707 108.918 55.4564 109.003 57.4481 109.001C59.4307 108.999 59.9101 108.915 61.0204 108.377C62.5783 107.622 64.3133 105.939 64.9939 104.522C65.3924 103.693 65.8936 100.181 67.3922 87.7261L69.287 71.9786L71.5634 67.6435C74.0569 62.8954 75.297 59.944 76.2664 56.452C78.0543 50.0115 78.5146 42.8236 77.388 38.9379C76.302 35.1919 73.5882 31.4895 70.1852 29.1106C66.6203 26.6187 63.2612 25.504 58.7203 25.306C55.3958 25.1609 53.5354 25.4696 49.5097 26.8336C42.3685 29.2531 36.2752 29.3273 29.333 27.0799C27.7237 26.559 25.8345 25.9745 25.1348 25.7814C23.8771 25.4339 18.3625 25.1558 17.1201 25.3772ZM27.0431 30.5838C31.6679 32.0582 33.9955 32.5039 37.8566 32.6546C42.5764 32.8388 46.2769 32.197 52.3594 30.1391C54.459 29.4286 54.9033 29.363 57.7026 29.3473C60.1866 29.3334 61.0878 29.4274 62.5368 29.8501C67.7261 31.3644 71.8637 35.3728 73.2158 40.1954C73.7017 41.9289 73.7613 46.187 73.3432 49.3315C72.599 54.9289 70.9856 59.5703 67.3922 66.4495L64.9937 71.0413L63.1726 86.4562C62.1709 94.9343 61.2489 102.201 61.1235 102.604C60.2322 105.466 55.9215 106.017 54.113 103.5C53.5619 102.733 53.2342 101.032 51.0844 87.7779C49.7436 79.5121 48.4406 72.2457 48.1487 71.4061C47.462 69.4314 46.2003 67.8846 44.3465 66.7445C42.4753 65.5938 40.805 65.2116 38.242 65.3482C33.6614 65.5924 30.2164 68.573 29.3599 73.0331C29.1989 73.8708 28.0448 80.8522 26.795 88.5476C25.4739 96.682 24.3603 102.829 24.1343 103.231C23.3273 104.668 21.6421 105.354 19.7303 105.024C18.4553 104.804 16.974 103.374 16.7486 102.146C16.6567 101.645 15.7425 94.3365 14.7172 85.9041L12.8527 70.5726L10.4345 66.0031C7.69728 60.8303 6.51949 57.9298 5.58011 54.0469C4.31557 48.8218 3.98353 43.0575 4.78297 40.2158C6.22765 35.0813 10.5536 31.0698 16.1537 29.6713C17.6266 29.3037 18.563 29.2284 20.6822 29.3077C23.0787 29.3972 23.7334 29.5284 27.0431 30.5838Z" fill="#808080"/>
<path d="M7 12.0581V30.1744C36 43.9999 55 38.4999 70.9167 30.1744L72 12.0581L64.4167 21.1162L56.2917 8.86107L49.25 17.9192L39.5 2.99991L28.6667 17.9192L22.1667 8.86107L13.5 21.1162L7 12.0581Z" stroke="#FECC00" stroke-width="3"/>
</svg>
