<svg width="110" height="110" viewBox="0 0 110 110" fill="none" xmlns="http://www.w3.org/2000/svg">
<path fill-rule="evenodd" clip-rule="evenodd" d="M0.627988 0.606094L0 1.23432V13.6688C0 24.6788 0.0391016 26.159 0.341172 26.5904C0.528731 26.8582 1.99418 28.1853 3.59756 29.5396C6.85738 32.2928 7.34744 32.4856 8.66959 31.5364L9.28254 31.0965L12.5525 34.3432C16.5623 38.3246 16.4903 38.3036 18.7206 36.1494L20.2121 34.7092L24.5006 38.9952C26.8593 41.3525 28.7891 43.3898 28.7891 43.5222C28.7891 43.6548 28.3849 44.6228 27.8908 45.6736C27.0783 47.402 26.9913 47.7481 26.9777 49.3078C26.9646 50.838 27.042 51.1924 27.6678 52.4639C28.5364 54.2293 30.0596 55.6584 31.7535 56.2976C32.7469 56.6724 33.3036 56.7423 34.6973 56.6668C36.161 56.5875 36.8861 56.3883 39.585 55.3237C41.328 54.6362 42.7539 53.9929 42.7539 53.8938C42.7539 53.5768 41.6391 50.9154 41.4599 50.8047C41.3649 50.746 39.9354 51.2305 38.283 51.8813C35.1149 53.1289 34.0643 53.2996 32.8004 52.7713C31.3738 52.1749 30.3084 50.1746 30.629 48.6942C30.71 48.32 31.0892 47.385 31.4718 46.6167C32.5967 44.3567 32.745 43.73 32.4294 42.5684C32.1888 41.6824 31.613 41.0164 27.4759 36.8376L22.7949 32.1092L24.1807 30.6821C25.39 29.4366 25.5664 29.1512 25.5664 28.4409C25.5664 27.6809 25.3552 27.4129 22.3734 24.3876L19.1804 21.148L19.6879 20.4177C20.2587 19.5963 20.3019 19.2184 19.9072 18.5068C19.507 17.7855 3.43084 0.744076 2.75988 0.329915C1.93123 -0.181608 1.33869 -0.104879 0.627988 0.606094ZM9.27502 12.3975C12.268 15.5638 14.9542 18.4204 15.2445 18.7452L15.7723 19.3358L11.5943 23.5195C9.29629 25.8205 7.34143 27.7032 7.25012 27.7032C7.15881 27.7032 6.31211 27.0505 5.36873 26.2525L3.65342 24.8018L3.65299 15.7212C3.65256 10.7269 3.69316 6.64056 3.74279 6.64056C3.79264 6.64056 6.28225 9.23127 9.27502 12.3975ZM18.9636 26.1487L21.2697 28.4626L18.9062 30.8197L16.543 33.1765L14.1797 30.8197L11.8162 28.4626L14.1223 26.1487C15.3905 24.8759 16.4798 23.8346 16.543 23.8346C16.6061 23.8346 17.6954 24.8759 18.9636 26.1487ZM94.0455 66.5551C81.2161 79.3956 80.7812 79.8573 80.7812 80.6375C80.7812 81.2859 80.9576 81.6358 81.6802 82.4198L82.5793 83.3956L79.0105 86.9657L75.4417 90.5358L73.7127 89.7451C71.1775 88.5858 69.8178 88.2733 66.788 88.1545C64.7475 88.0745 63.6283 88.1379 62.2763 88.4104C57.5326 89.3666 53.9062 91.8819 52.2405 95.3712C51.506 96.9099 51.4551 97.15 51.4551 99.0699C51.4551 101.008 51.5 101.214 52.2586 102.749C54.7229 107.737 61.7779 110.797 68.5554 109.818C73.7191 109.072 77.9556 106.412 79.7343 102.797C80.4182 101.407 80.459 101.197 80.459 99.063C80.459 96.6333 80.172 95.6663 78.9061 93.8326L78.3402 93.0126L81.8119 89.5397L85.2835 86.0665L86.0939 86.8555C87.0001 87.7377 87.71 88.0685 88.4106 87.9346C88.6752 87.8839 93.5062 83.2146 99.4409 77.2732L110 66.7021V60.5183V54.3344L109.473 53.807C109.097 53.4315 108.709 53.2794 108.128 53.2794C107.332 53.2794 106.943 53.6467 94.0455 66.5551ZM97.1728 74.3861L87.9847 83.5794L86.529 82.1342L85.0732 80.689L95.6566 70.0992L106.24 59.5094L106.301 62.3512L106.361 65.1927L97.1728 74.3861ZM69.6597 92.1663C75.1601 93.5736 78.0953 97.4072 76.4758 101.069C75.5683 103.122 72.9448 105.005 69.8242 105.844C67.9248 106.355 64.1777 106.365 62.3047 105.865C57.9221 104.694 54.9938 101.885 55.0022 98.859C55.0084 96.5871 57.527 93.83 60.6416 92.6853C63.4311 91.6601 66.9011 91.4605 69.6597 92.1663Z" fill="#FECC00"/>
<path fill-rule="evenodd" clip-rule="evenodd" d="M33.8899 7.66517C29.2215 8.3179 24.6537 10.4813 21.137 13.7052L19.6657 15.0537L21.0227 16.2678L22.3794 17.4819L24.0298 16.0627C27.1073 13.4164 30.2509 11.9824 34.2884 11.3832C37.582 10.8942 40.1442 11.1962 43.8872 12.515C47.613 13.8273 49.4893 14.2879 52.0001 14.5056C55.9872 14.8516 59.0887 14.3502 64.2999 12.5173C67.8324 11.2748 70.5145 10.9151 73.4435 11.2907C81.0794 12.2704 87.2425 17.2367 89.6695 24.3664C90.6159 27.146 90.8555 29.6159 90.5914 33.8669C90.0664 42.3157 87.8144 49.5793 83.3256 57.3013L81.6361 60.2078L80.971 65.1511C80.6053 67.8699 80.2562 70.3933 80.1952 70.7589L80.0843 71.4235L81.8424 71.6721C82.8092 71.809 83.6352 71.886 83.6778 71.8434C83.7205 71.8009 84.081 69.407 84.4794 66.5242L85.2034 61.2824L86.121 59.7779C91.0293 51.7307 93.6704 43.3394 94.2702 33.8852C94.4174 31.5675 94.4148 29.7971 94.2623 28.3103C92.8563 14.6045 80.1275 5.25607 66.6125 8.00346C65.7574 8.17712 63.8593 8.74474 62.3945 9.26465C58.9114 10.5007 56.8535 10.9082 54.0949 10.9082C51.3234 10.9082 49.274 10.4998 45.7445 9.24444C44.2518 8.71336 42.3537 8.13285 41.5265 7.95425C39.6597 7.55126 35.7605 7.40361 33.8899 7.66517ZM16.9735 42.2725C16.1129 42.4715 15.3493 42.6935 15.2767 42.7662C15.0792 42.9637 16.2018 46.9611 17.2455 49.7768C18.4473 53.02 19.7529 55.7689 21.5355 58.8108L22.984 61.2824L25.3301 78.4764C26.6505 88.1543 27.8624 96.2966 28.1026 97.1025C29.8738 103.046 37.6052 104.765 41.8494 100.158C43.5806 98.2795 43.5551 98.3882 46.7017 79.5367C48.7074 67.5202 49.7198 61.9646 50.0053 61.4045C50.782 59.8815 52.4681 58.8131 54.0949 58.8131C56.0055 58.8131 57.9823 60.3004 58.4876 62.1183C58.6556 62.7224 59.5826 68.0042 60.5477 73.8556C61.5128 79.7069 62.3651 84.5584 62.4418 84.6369C62.5909 84.789 65.6214 84.3186 65.829 84.1109C65.9454 83.9944 63.0261 65.9398 62.3311 62.4787C61.4846 58.2625 58.6549 55.6011 54.618 55.2241C51.1745 54.9024 47.349 57.412 46.2735 60.6985C46.0909 61.256 44.6817 69.3045 43.1421 78.5839C41.6026 87.8633 40.1906 95.8656 40.0045 96.3666C39.3497 98.1318 36.9374 99.4895 35.1444 99.1022C33.4353 98.7332 32.0351 97.5577 31.5453 96.0812C31.4312 95.7371 30.2618 87.5248 28.9468 77.8317L26.5558 60.2078L24.8793 57.3063C22.2331 52.7262 20.3246 48.2487 19.2887 44.1896C19.0341 43.1923 18.761 42.2716 18.682 42.1435C18.5814 41.9808 18.0692 42.0195 16.9735 42.2725Z" fill="#808080"/>
</svg>
