<svg width="47" height="29" viewBox="0 0 47 29" fill="none" xmlns="http://www.w3.org/2000/svg">
<path fill-rule="evenodd" clip-rule="evenodd" d="M1.97686 0.582237C2.02484 0.627544 6.88674 3.81144 12.7811 7.65774L23.4982 14.6509L34.2468 7.65017C40.1586 3.79973 45.0347 0.615834 45.0826 0.574671C45.1306 0.533597 35.4317 0.5 23.5297 0.5C10.47 0.5 1.9243 0.532607 1.97686 0.582237ZM0 14.5526V26.5442L0.210529 26.38C0.689839 26.0061 15.87 13.0072 15.87 12.9705C15.87 12.9392 0.570768 2.89648 0.114667 2.62842C0.0232087 2.57465 0 4.98347 0 14.5526ZM39.0328 7.76168C34.7442 10.5597 31.2014 12.8824 31.1599 12.9231C31.1037 12.9783 45.5203 25.4166 46.757 26.38L46.9677 26.5442V14.603C46.9677 8.03533 46.9368 2.66454 46.8989 2.66806C46.8611 2.67148 43.3213 4.96366 39.0328 7.76168ZM10.0945 21.5172L1.97989 28.4677L12.7318 28.4905C18.6455 28.5032 28.3222 28.5032 34.2357 28.4905L44.9876 28.4677L36.9189 21.5726C32.4812 17.7802 28.8009 14.6479 28.7405 14.612C28.6751 14.5731 27.7388 15.1291 26.4263 15.9862C25.2139 16.7779 24.0558 17.4696 23.8529 17.5233C23.588 17.5933 23.3798 17.5933 23.1148 17.5233C22.9119 17.4696 21.7554 16.779 20.5451 15.9885C19.3347 15.1981 18.3139 14.5548 18.2768 14.559C18.2395 14.5632 14.5576 17.6944 10.0945 21.5172Z" fill="#8187BD"/>
</svg>
