<svg width="35" height="35" viewBox="0 0 35 35" fill="none" xmlns="http://www.w3.org/2000/svg">
<path fill-rule="evenodd" clip-rule="evenodd" d="M8.33053 0.0697607C7.1841 0.201237 5.84171 0.645371 4.81536 1.23281C2.16243 2.75111 0.411927 5.40648 0.0757145 8.42217C-0.0252382 9.32801 -0.0252382 25.6614 0.0757145 26.5673C0.565783 30.963 4.03577 34.434 8.43018 34.9243C9.33575 35.0252 25.6642 35.0252 26.5698 34.9243C30.9642 34.434 34.4342 30.963 34.9243 26.5673C35.0252 25.6614 35.0252 9.32801 34.9243 8.42217C34.4342 4.02643 30.9642 0.555396 26.5698 0.0651799C25.7655 -0.0245222 9.11628 -0.0203516 8.33053 0.0697607ZM28.0942 4.65632C29.1199 4.96406 29.9027 5.86388 30.077 6.93573C30.283 8.20133 29.5114 9.51958 28.2937 9.98238C27.2532 10.3778 26.0165 10.0946 25.2624 9.28822C23.6839 7.60015 24.6663 4.87039 26.9664 4.55322C27.2375 4.51582 27.796 4.5669 28.0942 4.65632ZM27.1031 6.60591C26.8837 6.65595 26.5956 6.97121 26.5508 7.2103C26.4579 7.70571 26.9443 8.19224 27.4396 8.09932C27.7696 8.03738 28.0445 7.71611 28.0445 7.39244C28.0445 7.24715 28.0085 7.06091 27.9644 6.97859C27.8225 6.71339 27.4116 6.53555 27.1031 6.60591ZM18.757 8.02459C20.8714 8.30608 22.7002 9.21684 24.2389 10.7545C28.0004 14.5134 28.0004 20.4731 24.2389 24.2357C20.4773 27.9985 14.5227 27.9985 10.761 24.2357C6.99955 20.4731 6.99955 14.5134 10.761 10.7545C12.9121 8.60492 15.7746 7.62764 18.757 8.02459ZM16.3653 10.0735C14.7748 10.3207 13.3498 11.0468 12.2019 12.1951C9.26029 15.1376 9.26029 19.8519 12.2019 22.7944C12.5045 23.0971 13.0135 23.5188 13.3331 23.7314C16.3323 25.7277 20.2538 25.3395 22.7981 22.7944C25.7397 19.8519 25.7397 15.1376 22.7981 12.1951C21.096 10.4924 18.7176 9.70801 16.3653 10.0735Z" fill="#808080"/>
</svg>
