<svg width="36" height="35" viewBox="0 0 36 35" fill="none" xmlns="http://www.w3.org/2000/svg">
<path fill-rule="evenodd" clip-rule="evenodd" d="M17.7676 0.0192431C17.6358 0.0345708 17.2354 0.0804854 16.8777 0.121336C14.4071 0.403325 11.8292 1.34851 9.67559 2.76201C5.50566 5.49876 2.76757 9.87317 2.12568 14.8239C1.99898 15.801 1.97912 17.8262 2.08708 18.765C2.30537 20.6645 2.81303 22.4974 3.57211 24.1273L3.87173 24.7705L2.42312 28.883C1.12619 32.5647 0.973811 33.0426 0.968335 33.4455C0.962996 33.8332 0.990925 33.9422 1.16932 34.2307C1.43827 34.6654 1.90417 34.9591 2.3856 34.9973C2.70905 35.0229 3.13148 34.8891 6.95921 33.5484L11.1764 32.0714L11.7711 32.3499C17.9537 35.246 25.3124 34.1401 30.3864 29.552C32.837 27.3362 34.6028 24.4189 35.4298 21.2196C36.638 16.5465 35.7878 11.5272 33.1136 7.54583C30.3911 3.49261 26.2678 0.896411 21.3614 0.146176C20.7087 0.0464087 18.2735 -0.0396727 17.7676 0.0192431ZM14.6187 7.98212C15.0435 8.19636 17.5572 10.6958 17.8042 11.1495C18.0519 11.6044 18.1036 12.2105 17.9374 12.7107C17.8411 13.0006 17.6907 13.2052 17.2059 13.7062L16.5954 14.3369L16.9823 14.9621C17.9816 16.5768 19.3723 17.967 20.9876 18.9658L21.6131 19.3526L22.2441 18.7424C22.7453 18.2578 22.9499 18.1074 23.2399 18.0112C23.7403 17.845 24.3467 17.8967 24.8018 18.1443C25.2566 18.3918 27.7564 20.9044 27.9697 21.3286C28.2009 21.7881 28.2257 22.4198 28.0331 22.9366C27.8961 23.3037 27.7559 23.4711 26.7085 24.5174C25.5008 25.7239 25.1469 25.9907 24.5284 26.1613C24.0853 26.2835 23.0845 26.2977 22.5012 26.1901C20.8804 25.8912 18.8529 24.8407 16.7408 23.2053C15.728 22.4211 13.5257 20.2197 12.7412 19.2073C10.018 15.6928 9.06272 12.6959 10.0483 10.7586C10.1254 10.607 10.7309 9.94023 11.3939 9.2771C12.42 8.25069 12.6553 8.04952 12.9758 7.92498C13.4709 7.7327 14.1725 7.75706 14.6187 7.98212ZM12.7905 10.8078C11.6358 11.9675 11.6005 12.0427 11.7646 12.9933C12.0931 14.8959 13.7393 17.509 16.0895 19.8583C18.4398 22.2077 21.0538 23.8532 22.9572 24.1816C23.9082 24.3456 23.9834 24.3103 25.1435 23.1561L26.1191 22.1856L25.0417 21.107C24.4491 20.5138 23.935 20.0285 23.8993 20.0285C23.8635 20.0285 23.5519 20.3053 23.2066 20.6437C22.503 21.3335 22.2215 21.4857 21.6553 21.4822C21.3214 21.4801 21.1775 21.4325 20.6628 21.1534C18.1904 19.8129 16.135 17.7582 14.794 15.2869C14.5147 14.7723 14.4671 14.6285 14.465 14.2947C14.4615 13.7288 14.6138 13.4473 15.3039 12.744C15.6424 12.3989 15.9193 12.0873 15.9193 12.0516C15.9193 12.0159 15.4338 11.502 14.8404 10.9096L13.7614 9.83266L12.7905 10.8078Z" fill="#808080"/>
</svg>
