<svg width="42" height="42" viewBox="0 0 42 42" fill="none" xmlns="http://www.w3.org/2000/svg">
<path d="M29.9753 27.2499C29.6056 28.3022 27.822 29.2529 26.9566 29.383L29.9753 27.2499ZM29.9753 27.2499C30.3451 26.2017 30.3451 25.3038 30.2354 25.1169L29.9753 27.2499ZM29.2188 24.9067L29.2188 24.9068L29.2259 24.9102C29.3087 24.9505 29.3822 24.9853 29.4484 25.0166C29.5736 25.0759 29.6729 25.1229 29.7599 25.1713C29.8757 25.2358 29.9102 25.2725 29.9196 25.2853C29.9193 25.2879 29.93 25.3225 29.9366 25.4088C29.9444 25.5122 29.944 25.6549 29.929 25.8299C29.899 26.1791 29.8129 26.636 29.6382 27.131L29.6381 27.1314C29.4942 27.541 29.0421 27.9869 28.4587 28.3615C27.8841 28.7305 27.27 28.9743 26.9038 29.0294C26.2215 29.1308 25.6293 29.1545 24.8666 29.0104C24.0935 28.8643 23.1325 28.5432 21.7193 27.9335C17.6397 26.1683 14.8727 22.2264 14.3004 21.4112C14.2583 21.3511 14.228 21.308 14.2101 21.284C14.2051 21.2772 14.1994 21.2694 14.1931 21.2608C14.0594 21.0785 13.6414 20.5083 13.2474 19.7305C12.8302 18.907 12.4561 17.8817 12.4561 16.8611C12.4561 14.947 13.3824 13.9534 13.8397 13.4628C13.8724 13.4277 13.9027 13.3952 13.9301 13.3651C14.2618 13.0078 14.6434 12.9241 14.8614 12.9241C15.165 12.9241 15.4497 12.9243 15.6964 12.9397L15.6974 12.9397C15.7419 12.9424 15.7865 12.9423 15.82 12.9422L15.826 12.9422C15.8638 12.9421 15.8922 12.9422 15.9197 12.9438C15.9711 12.9467 16.0059 12.9544 16.0375 12.9692C16.0947 12.9959 16.2312 13.0895 16.396 13.4875L16.3962 13.4882C16.521 13.7879 16.7038 14.233 16.8964 14.7022C16.9917 14.9344 17.0895 15.1726 17.1839 15.402C17.4637 16.082 17.7233 16.709 17.7879 16.8382C17.8788 17.0199 17.9028 17.1486 17.8277 17.3044C17.4718 18.0137 17.1119 18.3905 16.8369 18.6785C16.8016 18.7155 16.7677 18.751 16.7354 18.7855C16.6015 18.9286 16.4385 19.1098 16.3776 19.3415C16.3089 19.603 16.3842 19.8487 16.5226 20.0875L16.523 20.0882C17.4089 21.609 18.3011 22.6463 19.3169 23.472C20.3273 24.2935 21.4478 24.8952 22.7657 25.5542C23.0113 25.678 23.2644 25.7607 23.5216 25.7292C23.7929 25.6961 23.9979 25.546 24.1625 25.3561C24.4288 25.0534 25.2968 24.0338 25.6126 23.56L25.6127 23.5601L25.6147 23.5569C25.7256 23.3867 25.7924 23.3775 25.8183 23.3745C25.8832 23.3668 25.9824 23.3881 26.1969 23.4688L26.1969 23.4689L26.2028 23.4709C26.3851 23.5359 27.0168 23.8313 27.6852 24.1531C28.3428 24.4697 29.0016 24.7951 29.2188 24.9067Z" fill="#02111B" stroke="#FDFDFD" stroke-width="0.714938"/>
<path d="M28.0959 4.5964L28.0964 4.59663C30.2335 5.49039 32.1483 6.78127 33.7899 8.42287C35.4314 10.0684 36.7185 11.9832 37.6165 14.1169C38.5424 16.3263 39.0113 18.6742 38.9993 21.0947C38.9874 23.5045 38.5104 25.8365 37.573 28.0292L37.5727 28.0297C36.6709 30.1473 35.3799 32.0461 33.7386 33.6716L33.7383 33.6719C32.1014 35.2968 30.1909 36.568 28.0649 37.4542C25.8913 38.3562 23.5829 38.8172 21.2016 38.8172L21.1181 38.8172C21.1178 38.8172 21.1175 38.8172 21.1172 38.8172C18.3598 38.8052 15.6219 38.1454 13.1749 36.91L13.0899 36.867H12.9946H6.81495C6.00389 36.867 5.34602 36.2092 5.34602 35.3981V29.2225V29.1273L5.3031 29.0422C4.06752 26.5949 3.40775 23.8567 3.39583 21.0991L3.39583 21.0988C3.38391 18.6898 3.8449 16.3496 4.75884 14.1482L4.75886 14.1481C5.64068 12.023 6.91566 10.1162 8.5415 8.47445C10.1666 6.83342 12.0655 5.54624 14.1839 4.64006C16.3763 3.70276 18.7079 3.22577 21.1173 3.21372H21.1976C23.5908 3.21372 25.9108 3.67868 28.0959 4.5964ZM32.1278 32.042L32.1281 32.0418C35.0639 29.131 36.6946 25.2389 36.7197 21.087L36.7197 21.0861C36.728 18.9773 36.3236 16.9333 35.5144 15.0062C34.7344 13.1458 33.608 11.4731 32.178 10.0432C30.7439 8.60907 29.0753 7.4868 27.215 6.70681C25.3087 5.90595 23.2856 5.50152 21.2016 5.50152L21.1326 5.50151L21.131 5.50152C16.9748 5.5182 13.0823 7.14484 10.1713 10.085C7.25603 13.0252 5.66696 16.9302 5.68364 21.0861L5.68364 21.0865C5.69615 23.6007 6.32137 26.0983 7.49801 28.3056L7.4984 28.3063L7.63382 28.5591V34.1792V34.5792H8.03382H13.654L13.9068 34.7147L13.9075 34.715C16.1147 35.8917 18.6124 36.5169 21.1265 36.5294H21.1285H21.1976C25.3249 36.5294 29.2046 34.9361 32.1278 32.042Z" fill="#02111B" stroke="#FDFDFD" stroke-width="0.8"/>
</svg>
